<svg aria-hidden="true" style="width:0;height:0;position:absolute;overflow:hidden" xmlns="http://www.w3.org/2000/svg"><defs><symbol id="tetrahedron" viewBox="0 0 32 32"><path fill="#4b004e" style="fill:var(--color1,#4b004e)" d="m26.315 26.167-9.91-20.721c-.003-.005-.009-.007-.013-.013-.075-.143-.221-.244-.394-.244s-.318.101-.394.244c-.003.005-.01.007-.013.013l-9.91 20.721c-.005.009-.002.019-.005.029-.02.05-.029.1-.031.153-.001.016-.006.032-.005.049a.449.449 0 0 0 .052.179c.002.004.006.005.008.008.003.005.002.012.005.017.03.047.075.078.118.111.015.012.025.03.041.039a.446.446 0 0 0 .222.059h19.82a.449.449 0 0 0 .406-.644zm-1.637-.257H6.863c-.011-.017-.025-.03-.038-.045l9.174-19.181 9.092 19.008a.45.45 0 0 0-.413.218z"/><path fill="#4b004e" style="fill:var(--color1,#4b004e)" d="M14.341 21.859a.45.45 0 0 0-.611-.18l-.829.452a.45.45 0 1 0 .432.791l.829-.452a.45.45 0 0 0 .179-.611zM9.366 24.573a.45.45 0 0 0-.611-.18l-.829.452a.45.45 0 1 0 .432.791l.829-.452a.45.45 0 0 0 .179-.611zM11.853 23.216a.45.45 0 0 0-.611-.18l-.829.452a.45.45 0 1 0 .432.791l.829-.452a.45.45 0 0 0 .179-.611zM16.614 20.787l-.165-.094v-.189a.45.45 0 0 0-.9 0v.183l-.159.087a.45.45 0 1 0 .432.791l.174-.095.173.098a.454.454 0 0 0 .615-.168.451.451 0 0 0-.168-.614zM21.346 23.492l-.788-.45a.45.45 0 1 0-.446.782l.788.45a.451.451 0 0 0 .446-.782zM23.712 24.844l-.788-.45a.45.45 0 1 0-.446.782l.788.45a.449.449 0 1 0 .446-.782zM18.98 22.14l-.789-.45a.45.45 0 1 0-.447.782l.789.45a.454.454 0 0 0 .615-.168.451.451 0 0 0-.168-.614zM15.998 9.879a.45.45 0 0 0-.45.45v.848a.45.45 0 0 0 .9 0v-.848a.45.45 0 0 0-.45-.45zM15.998 12.423a.45.45 0 0 0-.45.45v.848a.45.45 0 0 0 .9 0v-.848a.45.45 0 0 0-.45-.45zM15.998 7.336a.45.45 0 0 0-.45.45v.848a.45.45 0 0 0 .9 0v-.848a.45.45 0 0 0-.45-.45zM15.998 14.967a.45.45 0 0 0-.45.45v.848a.45.45 0 0 0 .9 0v-.848a.45.45 0 0 0-.45-.45zM15.998 17.511a.45.45 0 0 0-.45.45v.848a.45.45 0 0 0 .9 0v-.848a.45.45 0 0 0-.45-.45z"/></symbol></defs></svg>