<svg aria-hidden="true" style="position: absolute; width: 0; height: 0; overflow: hidden;" version="1.1" xmlns="http://www.w3.org/2000/svg" xmlns:xlink="http://www.w3.org/1999/xlink">
<defs>
<symbol id="tetrahedron" viewBox="0 0 32 32">
<path fill="#4b004e" style="fill: var(--color1, #4b004e)" d="M26.315 26.167l-9.91-20.721c-0.003-0.005-0.009-0.007-0.013-0.013-0.075-0.143-0.221-0.244-0.394-0.244s-0.318 0.101-0.394 0.244c-0.003 0.005-0.010 0.007-0.013 0.013l-9.91 20.721c-0.005 0.009-0.002 0.019-0.005 0.029-0.020 0.050-0.029 0.1-0.031 0.153-0.001 0.016-0.006 0.032-0.005 0.049 0.005 0.061 0.021 0.122 0.052 0.179 0.002 0.004 0.006 0.005 0.008 0.008 0.003 0.005 0.002 0.012 0.005 0.017 0.030 0.047 0.075 0.078 0.118 0.111 0.015 0.012 0.025 0.030 0.041 0.039 0.067 0.038 0.142 0.059 0.222 0.059h19.82c0.155 0 0.299-0.079 0.381-0.21s0.092-0.295 0.025-0.434zM24.678 25.91h-17.815c-0.011-0.017-0.025-0.030-0.038-0.045l9.174-19.181 9.092 19.008c-0.163-0.008-0.324 0.068-0.413 0.218z"></path>
<path fill="#4b004e" style="fill: var(--color1, #4b004e)" d="M14.341 21.859c-0.12-0.219-0.393-0.299-0.611-0.18l-0.829 0.452c-0.218 0.119-0.299 0.393-0.179 0.611 0.081 0.15 0.235 0.235 0.395 0.235 0.073 0 0.147-0.017 0.216-0.055l0.829-0.452c0.218-0.119 0.299-0.393 0.179-0.611z"></path>
<path fill="#4b004e" style="fill: var(--color1, #4b004e)" d="M9.366 24.573c-0.119-0.219-0.393-0.299-0.611-0.18l-0.829 0.452c-0.218 0.119-0.299 0.393-0.179 0.611 0.081 0.15 0.235 0.235 0.395 0.235 0.073 0 0.147-0.018 0.216-0.055l0.829-0.452c0.218-0.119 0.299-0.393 0.179-0.611z"></path>
<path fill="#4b004e" style="fill: var(--color1, #4b004e)" d="M11.853 23.216c-0.12-0.219-0.392-0.298-0.611-0.18l-0.829 0.452c-0.218 0.119-0.299 0.393-0.179 0.611 0.081 0.15 0.235 0.235 0.395 0.235 0.073 0 0.147-0.018 0.216-0.055l0.829-0.452c0.218-0.119 0.299-0.393 0.179-0.611z"></path>
<path fill="#4b004e" style="fill: var(--color1, #4b004e)" d="M16.614 20.787l-0.165-0.094v-0.189c0-0.249-0.202-0.45-0.45-0.45s-0.45 0.202-0.45 0.45v0.183l-0.159 0.087c-0.218 0.119-0.299 0.393-0.179 0.611s0.393 0.299 0.611 0.18l0.174-0.095 0.173 0.098c0.070 0.041 0.147 0.059 0.223 0.059 0.155 0 0.307-0.081 0.392-0.227 0.123-0.216 0.047-0.491-0.168-0.614z"></path>
<path fill="#4b004e" style="fill: var(--color1, #4b004e)" d="M21.346 23.492l-0.788-0.45c-0.214-0.123-0.491-0.050-0.614 0.168-0.123 0.215-0.049 0.491 0.168 0.614l0.788 0.45c0.070 0.041 0.147 0.059 0.223 0.059 0.155 0 0.307-0.081 0.391-0.227 0.123-0.215 0.049-0.491-0.168-0.614z"></path>
<path fill="#4b004e" style="fill: var(--color1, #4b004e)" d="M23.712 24.844l-0.788-0.45c-0.214-0.123-0.492-0.050-0.614 0.168-0.123 0.215-0.049 0.491 0.168 0.614l0.788 0.45c0.070 0.041 0.147 0.059 0.223 0.059 0.156 0 0.308-0.081 0.391-0.227 0.123-0.215 0.049-0.491-0.168-0.614z"></path>
<path fill="#4b004e" style="fill: var(--color1, #4b004e)" d="M18.98 22.14l-0.789-0.45c-0.214-0.123-0.49-0.050-0.615 0.168-0.122 0.216-0.048 0.491 0.168 0.614l0.789 0.45c0.070 0.041 0.147 0.059 0.223 0.059 0.155 0 0.307-0.081 0.392-0.227 0.122-0.216 0.048-0.491-0.168-0.614z"></path>
<path fill="#4b004e" style="fill: var(--color1, #4b004e)" d="M15.998 9.879c-0.249 0-0.45 0.202-0.45 0.45v0.848c0 0.249 0.202 0.45 0.45 0.45s0.45-0.202 0.45-0.45v-0.848c0-0.249-0.202-0.45-0.45-0.45z"></path>
<path fill="#4b004e" style="fill: var(--color1, #4b004e)" d="M15.998 12.423c-0.249 0-0.45 0.202-0.45 0.45v0.848c0 0.249 0.202 0.45 0.45 0.45s0.45-0.202 0.45-0.45v-0.848c0-0.249-0.202-0.45-0.45-0.45z"></path>
<path fill="#4b004e" style="fill: var(--color1, #4b004e)" d="M15.998 7.336c-0.249 0-0.45 0.202-0.45 0.45v0.848c0 0.249 0.202 0.45 0.45 0.45s0.45-0.202 0.45-0.45v-0.848c0-0.249-0.202-0.45-0.45-0.45z"></path>
<path fill="#4b004e" style="fill: var(--color1, #4b004e)" d="M15.998 14.967c-0.249 0-0.45 0.202-0.45 0.45v0.848c0 0.249 0.202 0.45 0.45 0.45s0.45-0.202 0.45-0.45v-0.848c0-0.249-0.202-0.45-0.45-0.45z"></path>
<path fill="#4b004e" style="fill: var(--color1, #4b004e)" d="M15.998 17.511c-0.249 0-0.45 0.202-0.45 0.45v0.848c0 0.249 0.202 0.45 0.45 0.45s0.45-0.202 0.45-0.45v-0.848c0-0.249-0.202-0.45-0.45-0.45z"></path>
</symbol>
</defs>
</svg>
